<svg width="504" height="570" viewBox="0 0 504 570" fill="none" xmlns="http://www.w3.org/2000/svg">
<path d="M193.574 0.887939C364.475 0.888191 503.017 139.431 503.017 310.331C503.017 418.855 447.149 514.329 362.607 569.567C381.46 525.865 391.906 477.686 391.906 427.067C391.906 228.203 230.695 66.9924 31.8311 66.9924C21.3509 66.9924 10.9755 67.4412 0.722656 68.3186C53.6142 26.1156 120.648 0.887939 193.574 0.887939Z" fill="white"/>
<ellipse cx="315.752" cy="209.921" rx="81.2528" ry="133.767" transform="rotate(-37.9801 315.752 209.921)" fill="white"/>
<path d="M312.075 218.426C277.304 180.854 270.18 122.302 279.706 94.2929C297.514 95.3404 342.244 109.566 378.698 158.088C415.152 206.61 421.123 249.957 419.552 265.565C390.412 265.565 353.272 262.941 312.075 218.426Z" fill="black"/>
<path d="M240.116 112.398C256.004 99.9936 278.93 99.5389 303.259 109.021C327.574 118.498 353.184 137.869 374.294 164.909C395.405 191.948 407.985 221.493 411.28 247.382C414.577 273.284 408.574 295.413 392.685 307.818C376.797 320.222 353.873 320.677 329.544 311.195C305.229 301.718 279.617 282.347 258.507 255.307C237.397 228.268 224.818 198.723 221.523 172.835C218.226 146.932 224.228 124.803 240.116 112.398Z" stroke="#0F0F0F" stroke-width="1.14728"/>
<ellipse cx="320.117" cy="208.893" rx="18.1481" ry="29.8772" transform="rotate(-41.6191 320.117 208.893)" fill="black"/>
<path d="M278.335 103.092C297.526 105.399 342.375 121.316 372.715 163.367C403.873 206.55 412.561 238.162 411.886 264.331" stroke="#D9D9D9" stroke-width="0.917828"/>
</svg>
