<svg width="2797" height="570" viewBox="0 0 2797 570" fill="none" xmlns="http://www.w3.org/2000/svg">
<path d="M193.574 0.887939C364.475 0.888191 503.017 139.431 503.017 310.331C503.017 418.855 447.149 514.329 362.607 569.567C381.46 525.865 391.906 477.686 391.906 427.067C391.906 228.203 230.695 66.9924 31.8311 66.9924C21.3509 66.9924 10.9755 67.4412 0.722656 68.3186C53.6142 26.1156 120.648 0.887939 193.574 0.887939Z" fill="white"/>
<ellipse cx="315.752" cy="209.921" rx="81.2528" ry="133.767" transform="rotate(-37.9801 315.752 209.921)" fill="white"/>
<path d="M312.075 218.426C277.304 180.854 270.18 122.302 279.706 94.2929C297.514 95.3404 342.244 109.566 378.698 158.088C415.152 206.61 421.123 249.957 419.552 265.565C390.412 265.565 353.272 262.941 312.075 218.426Z" fill="black"/>
<path d="M240.116 112.398C256.004 99.9936 278.93 99.5389 303.259 109.021C327.574 118.498 353.184 137.869 374.294 164.909C395.405 191.948 407.985 221.493 411.28 247.382C414.577 273.284 408.574 295.413 392.685 307.818C376.797 320.222 353.873 320.677 329.544 311.195C305.229 301.718 279.617 282.347 258.507 255.307C237.397 228.268 224.818 198.723 221.523 172.835C218.226 146.932 224.228 124.803 240.116 112.398Z" stroke="#0F0F0F" stroke-width="1.14728"/>
<ellipse cx="320.117" cy="208.893" rx="18.1481" ry="29.8772" transform="rotate(-41.6191 320.117 208.893)" fill="black"/>
<path d="M637.88 407V147.8H853.88C861.8 147.8 869 149.72 875.48 153.56C882.2 157.4 887.48 162.68 891.32 169.4C895.16 175.88 897.08 183.08 897.08 191V363.8C897.08 371.72 895.16 379.04 891.32 385.76C887.48 392.24 882.2 397.4 875.48 401.24C869 405.08 861.8 407 853.88 407H637.88ZM681.08 377.84H853.88C857.72 377.84 860.96 376.52 863.6 373.88C866.48 371 867.92 367.64 867.92 363.8V191C867.92 187.16 866.48 183.92 863.6 181.28C860.96 178.4 857.72 176.96 853.88 176.96H681.08C677.24 176.96 673.88 178.4 671 181.28C668.36 183.92 667.04 187.16 667.04 191V363.8C667.04 367.64 668.36 371 671 373.88C673.88 376.52 677.24 377.84 681.08 377.84ZM979.154 407C971.234 407 963.914 405.08 957.194 401.24C950.714 397.16 945.434 391.88 941.354 385.4C937.514 378.68 935.594 371.36 935.594 363.44V241.76C935.594 233.84 937.514 226.64 941.354 220.16C945.434 213.44 950.714 208.16 957.194 204.32C963.914 200.24 971.234 198.2 979.154 198.2H1104.43C1112.59 198.2 1119.91 200.24 1126.39 204.32C1133.11 208.16 1138.39 213.44 1142.23 220.16C1146.31 226.64 1148.35 233.84 1148.35 241.76V317.36H965.114V363.44C965.114 367.28 966.434 370.64 969.074 373.52C971.954 376.16 975.314 377.48 979.154 377.48H1148.35V407H979.154ZM965.114 287.84H1118.47V241.76C1118.47 237.92 1117.03 234.68 1114.15 232.04C1111.51 229.16 1108.27 227.72 1104.43 227.72H979.154C975.314 227.72 971.954 229.16 969.074 232.04C966.434 234.68 965.114 237.92 965.114 241.76V287.84ZM1228.77 407C1220.85 407 1213.53 405.08 1206.81 401.24C1200.33 397.16 1195.05 391.88 1190.97 385.4C1187.13 378.68 1185.21 371.36 1185.21 363.44V287.84H1368.09V241.76C1368.09 237.92 1366.65 234.68 1363.77 232.04C1361.13 229.16 1357.89 227.72 1354.05 227.72H1185.21V198.2H1354.05C1362.21 198.2 1369.53 200.24 1376.01 204.32C1382.73 208.16 1388.01 213.44 1391.85 220.16C1395.93 226.64 1397.97 233.84 1397.97 241.76V407H1228.77ZM1228.77 377.48H1368.09V317.36H1214.73V363.44C1214.73 367.28 1216.05 370.64 1218.69 373.52C1221.57 376.16 1224.93 377.48 1228.77 377.48ZM1479.09 407C1470.93 407 1463.49 405.08 1456.77 401.24C1450.29 397.16 1445.13 391.88 1441.29 385.4C1437.45 378.68 1435.53 371.36 1435.53 363.44V129.8H1465.05V198.2H1555.41V227.72H1465.05V363.44C1465.05 367.28 1466.37 370.64 1469.01 373.52C1471.89 376.16 1475.25 377.48 1479.09 377.48H1555.41V407H1479.09ZM1585.31 407V129.8H1614.83V198.2H1754.51C1762.43 198.2 1769.63 200.24 1776.11 204.32C1782.83 208.16 1788.11 213.44 1791.95 220.16C1796.03 226.64 1798.07 233.84 1798.07 241.76V407H1768.55V241.76C1768.55 237.92 1767.11 234.68 1764.23 232.04C1761.59 229.16 1758.35 227.72 1754.51 227.72H1629.23C1625.39 227.72 1622.03 229.16 1619.15 232.04C1616.27 234.68 1614.83 237.92 1614.83 241.76V407H1585.31ZM1965.98 407C1958.06 407 1950.74 405.08 1944.02 401.24C1937.54 397.4 1932.38 392.24 1928.54 385.76C1924.7 379.04 1922.78 371.72 1922.78 363.8V353.72H1951.94V363.8C1951.94 367.64 1953.26 371 1955.9 373.88C1958.78 376.52 1962.14 377.84 1965.98 377.84H2138.78C2142.62 377.84 2145.86 376.52 2148.5 373.88C2151.38 371 2152.82 367.64 2152.82 363.8V305.84C2152.82 302 2151.38 298.76 2148.5 296.12C2145.86 293.48 2142.62 292.16 2138.78 292.16H1965.98C1958.06 292.16 1950.74 290.24 1944.02 286.4C1937.54 282.32 1932.38 277.04 1928.54 270.56C1924.7 264.08 1922.78 256.88 1922.78 248.96V191C1922.78 183.08 1924.7 175.88 1928.54 169.4C1932.38 162.68 1937.54 157.4 1944.02 153.56C1950.74 149.72 1958.06 147.8 1965.98 147.8H2138.78C2146.7 147.8 2153.9 149.72 2160.38 153.56C2167.1 157.4 2172.38 162.68 2176.22 169.4C2180.06 175.88 2181.98 183.08 2181.98 191V201.08H2152.82V191C2152.82 187.16 2151.38 183.92 2148.5 181.28C2145.86 178.4 2142.62 176.96 2138.78 176.96H1965.98C1962.14 176.96 1958.78 178.4 1955.9 181.28C1953.26 183.92 1951.94 187.16 1951.94 191V248.96C1951.94 252.8 1953.26 256.04 1955.9 258.68C1958.78 261.32 1962.14 262.64 1965.98 262.64H2138.78C2146.7 262.64 2153.9 264.68 2160.38 268.76C2167.1 272.6 2172.38 277.76 2176.22 284.24C2180.06 290.72 2181.98 297.92 2181.98 305.84V363.8C2181.98 371.72 2180.06 379.04 2176.22 385.76C2172.38 392.24 2167.1 397.4 2160.38 401.24C2153.9 405.08 2146.7 407 2138.78 407H1965.98ZM2263.08 407C2254.92 407 2247.48 405.08 2240.76 401.24C2234.28 397.16 2229.12 391.88 2225.28 385.4C2221.44 378.68 2219.52 371.36 2219.52 363.44V129.8H2249.04V198.2H2339.4V227.72H2249.04V363.44C2249.04 367.28 2250.36 370.64 2253 373.52C2255.88 376.16 2259.24 377.48 2263.08 377.48H2339.4V407H2263.08ZM2410.37 407C2402.45 407 2395.13 405.08 2388.41 401.24C2381.93 397.16 2376.65 391.88 2372.57 385.4C2368.73 378.68 2366.81 371.36 2366.81 363.44V287.84H2549.69V241.76C2549.69 237.92 2548.25 234.68 2545.37 232.04C2542.73 229.16 2539.49 227.72 2535.65 227.72H2366.81V198.2H2535.65C2543.81 198.2 2551.13 200.24 2557.61 204.32C2564.33 208.16 2569.61 213.44 2573.45 220.16C2577.53 226.64 2579.57 233.84 2579.57 241.76V407H2410.37ZM2410.37 377.48H2549.69V317.36H2396.33V363.44C2396.33 367.28 2397.65 370.64 2400.29 373.52C2403.17 376.16 2406.53 377.48 2410.37 377.48ZM2615.02 407V241.76C2615.02 233.84 2616.94 226.64 2620.78 220.16C2624.86 213.44 2630.14 208.16 2636.62 204.32C2643.34 200.24 2650.66 198.2 2658.58 198.2H2775.94V227.72H2658.58C2654.74 227.72 2651.38 229.16 2648.5 232.04C2645.86 234.68 2644.54 237.92 2644.54 241.76V407H2615.02Z" fill="white"/>
<path d="M278.335 103.092C297.526 105.399 342.375 121.316 372.715 163.367C403.873 206.55 412.561 238.162 411.886 264.331" stroke="#D9D9D9" stroke-width="0.917828"/>
</svg>
