<svg width="593" height="593" viewBox="0 0 593 593" fill="none" xmlns="http://www.w3.org/2000/svg">
<g clip-path="url(#clip0_3973_2)">
<path d="M156.24 216.372C156.655 159.901 179.05 105.812 218.676 65.5762H218.603L65.617 218.562H65.69C65.1205 219.01 64.5836 219.499 64.0835 220.023C26.8774 257.18 4.31989 306.509 0.550631 358.957C-3.21863 411.405 12.0533 463.453 43.5636 505.548L198.083 351.029L199.69 349.495C170.89 311.143 155.611 264.329 156.24 216.372Z" fill="#8C0C3A"/>
<path d="M527.716 374.688C498.436 403.384 461.681 423.275 421.643 432.094C381.605 440.912 339.895 438.303 301.268 424.564C280.673 417.253 261.317 406.836 243.87 393.675L242.264 395.281L87.7441 549.728C129.857 581.16 181.877 596.383 234.291 592.616C286.705 588.848 336.012 566.34 373.197 529.208L374.73 527.675L527.716 374.688Z" fill="#8C0C3A"/>
<path d="M593.291 218.562V8.00011C593.291 3.58183 589.709 0.000109366 585.291 0.000109366H374.729C346.024 -0.0286484 317.597 5.61425 291.079 16.6047C264.562 27.5951 240.477 43.7164 220.209 64.0426L218.676 65.5761C191.96 92.6981 172.845 126.369 163.25 163.21C180.62 158.712 198.47 156.333 216.412 156.126C264.371 155.562 311.172 170.863 349.535 199.649C384.014 225.362 410.109 260.706 424.532 301.226C439.23 342.642 441.163 387.515 430.081 430.041C466.929 420.462 500.603 401.345 527.715 374.616L529.249 373.155C549.583 352.878 565.71 328.782 576.7 302.251C587.691 275.721 593.329 247.279 593.291 218.562Z" fill="#E21862"/>
</g>
<defs>
<clipPath id="clip0_3973_2">
<rect width="593" height="593" fill="white"/>
</clipPath>
</defs>
</svg>
